HIERARCHY
ROOT Hips
{
	OFFSET 0.000000 0.000000 0.000000
	CHANNELS 6 Xposition Yposition Zposition Zrotation Yrotation Xrotation 
	JOINT LHipJoint
	{
		OFFSET 0.000000 0.000000 0.000000
		CHANNELS 3 Zrotation Yrotation Xrotation
		JOINT LeftUpLeg
		{
			OFFSET 1.363060 -1.794630 0.839290
			CHANNELS 3 Zrotation Yrotation Xrotation
			JOINT LeftLeg
			{
				OFFSET 2.448110 -6.726130 0.000000
				CHANNELS 3 Zrotation Yrotation Xrotation
				JOINT LeftFoot
				{
					OFFSET 2.562200 -7.039590 0.000000
					CHANNELS 3 Zrotation Yrotation Xrotation
					JOINT LeftToeBase
					{
						OFFSET 0.157640 -0.433110 2.322550
						CHANNELS 3 Zrotation Yrotation Xrotation
						End Site
						{
							OFFSET 0.000000 0.000000 0.000000
						}
					}
				}
			}
		}
	}
	JOINT RHipJoint
	{
		OFFSET 0.000000 0.000000 0.000000
		CHANNELS 3 Zrotation Yrotation Xrotation
		JOINT RightUpLeg
		{
			OFFSET -1.305520 -1.794630 0.839290
			CHANNELS 3 Zrotation Yrotation Xrotation
			JOINT RightLeg
			{
				OFFSET -2.542530 -6.985550 0.000000
				CHANNELS 3 Zrotation Yrotation Xrotation
				JOINT RightFoot
				{
					OFFSET -2.568260 -7.056230 0.000000
					CHANNELS 3 Zrotation Yrotation Xrotation
					JOINT RightToeBase
					{
						OFFSET -0.164730 -0.452590 2.363150
						CHANNELS 3 Zrotation Yrotation Xrotation
						End Site
						{
							OFFSET 0.000000 0.000000 0.000000
						}
					}
				}
			}
		}
	}
	JOINT LowerBack
	{
		OFFSET 0.000000 0.000000 0.000000
		CHANNELS 3 Zrotation Yrotation Xrotation
		JOINT Spine
		{
			OFFSET 0.028270 2.035590 -0.193380
			CHANNELS 3 Zrotation Yrotation Xrotation
			JOINT Spine1
			{
				OFFSET 0.056720 2.048850 -0.042750
				CHANNELS 3 Zrotation Yrotation Xrotation
				JOINT Neck
				{
					OFFSET 0.000000 0.000000 0.000000
					CHANNELS 3 Zrotation Yrotation Xrotation
					JOINT Neck1
					{
						OFFSET -0.054170 1.746240 0.172020
						CHANNELS 3 Zrotation Yrotation Xrotation
						JOINT Head
						{
							OFFSET 0.104070 1.761360 -0.123970
							CHANNELS 3 Zrotation Yrotation Xrotation
							End Site
							{
								OFFSET 0.000000 0.000000 0.000000
							}
						}
					}
				}
				JOINT LeftShoulder
				{
					OFFSET 0.000000 0.000000 0.000000
					CHANNELS 3 Zrotation Yrotation Xrotation
					JOINT LeftArm
					{
						OFFSET 3.362410 1.200890 -0.311210
						CHANNELS 3 Zrotation Yrotation Xrotation
						JOINT LeftForeArm
						{
							OFFSET 4.983000 -0.000000 -0.000000
							CHANNELS 3 Zrotation Yrotation Xrotation
							JOINT LeftHand
							{
								OFFSET 3.483560 -0.000000 -0.000000
								CHANNELS 3 Zrotation Yrotation Xrotation
								JOINT LeftFingerBase
								{
									OFFSET 0.000000 0.000000 0.000000
									CHANNELS 3 Zrotation Yrotation Xrotation
									JOINT LeftHandIndex1
									{
										OFFSET 0.715260 -0.000000 -0.000000
										CHANNELS 3 Zrotation Yrotation Xrotation
										End Site
										{
											OFFSET 0.000000 0.000000 0.000000
										}
									}
								}
								JOINT LThumb
								{
									OFFSET 0.000000 0.000000 0.000000
									CHANNELS 3 Zrotation Yrotation Xrotation
									End Site
									{
										OFFSET 0.000000 0.000000 0.000000
									}
								}
							}
						}
					}
				}
				JOINT RightShoulder
				{
					OFFSET 0.000000 0.000000 0.000000
					CHANNELS 3 Zrotation Yrotation Xrotation
					JOINT RightArm
					{
						OFFSET -3.136600 1.374050 -0.404650
						CHANNELS 3 Zrotation Yrotation Xrotation
						JOINT RightForeArm
						{
							OFFSET -5.241900 -0.000000 -0.000000
							CHANNELS 3 Zrotation Yrotation Xrotation
							JOINT RightHand
							{
								OFFSET -3.444170 -0.000000 -0.000000
								CHANNELS 3 Zrotation Yrotation Xrotation
								JOINT RightFingerBase
								{
									OFFSET 0.000000 0.000000 0.000000
									CHANNELS 3 Zrotation Yrotation Xrotation
									JOINT RightHandIndex1
									{
										OFFSET -0.622530 -0.000000 -0.000000
										CHANNELS 3 Zrotation Yrotation Xrotation
										End Site
										{
											OFFSET 0.000000 0.000000 0.000000
										}
									}
								}
								JOINT RThumb
								{
									OFFSET 0.000000 0.000000 0.000000
									CHANNELS 3 Zrotation Yrotation Xrotation
									End Site
									{
										OFFSET 0.000000 0.000000 0.000000
									}
								}
							}
						}
					}
				}
			}
		}
	}
}
MOTION
Frames: 7
Frame Time: 0.008333
-1.624096 17.125465 0.396629 -34.688279 78.696173 -19.448625 -10.944556 0.339358 4.438840 0.422984 -0.433035 -43.176544 0.495654 1.981901 51.376307 4.049229 21.022430 -12.484173 -1.105100 0.000000 -19.201900 6.806640 -2.181999 6.147919 21.704320 8.131010 -8.789303 4.807020 3.292312 -5.132431 0.037169 3.410744 -9.546983 -179.994700 0.000001 -20.989400 2.677562 0.469742 -12.405638 -0.704358 -0.468686 -5.096958 -8.213902 -0.518998 1.225842 13.459699 -10.423010 -8.112256 -4.086327 -0.338556 -0.040832 0.000000 0.000000 0.000000 -0.971532 14.266307 1.046176 -61.590091 9.525963 4.184293 -3.119505 -33.034593 0.002895 6.225712 1.624898 0.092859 -0.103740 -0.041769 -0.000000 0.000000 0.000000 0.000000 0.000000 0.000000 0.000000 21.178911 -3.638756 -1.431741 63.982546 11.520086 8.611767 0.774841 71.161406 -0.013786 -4.563509 6.128939 -0.260219 0.079679 -0.331533 0.000000 0.000000 0.000000 0.000000 0.000000 0.000000 0.000000 
-1.493979 17.115770 0.409434 -34.738965 78.855627 -19.348673 -10.854461 0.214303 4.646807 0.576890 -0.992764 -44.089324 0.469493 1.869385 49.856401 4.024057 20.588284 -12.127108 -0.905300 0.000000 -19.508000 6.827034 -2.203809 6.044291 21.637795 7.901808 -8.374314 4.779697 3.308677 -5.190591 0.016270 3.457205 -9.895393 -179.986800 0.000000 -20.818800 2.433145 0.703789 -12.494678 -0.784960 -0.212883 -5.124633 -8.244009 -0.263753 1.217376 13.508821 -10.035491 -8.061593 -4.081496 -0.338269 -0.031064 0.000000 0.000000 0.000000 -0.792544 14.749794 1.068208 -61.087412 9.756931 3.903712 -3.136672 -33.443790 0.003019 6.164017 1.651111 0.093575 -0.107433 -0.044463 -0.000000 0.000000 0.000000 0.000000 0.000000 0.000000 0.000000 21.159189 -3.063867 -1.406212 63.731912 12.224429 9.314876 0.769798 71.551898 -0.013577 -4.375477 6.104137 -0.248694 0.076123 -0.338204 0.000000 0.000000 0.000000 0.000000 0.000000 0.000000 0.000000 
-1.363440 17.104407 0.421197 -34.951979 79.048651 -19.440714 -10.766254 0.108750 4.841966 0.710697 -1.507124 -44.943941 0.443281 1.756455 48.241913 3.950518 19.968746 -11.475039 -0.603800 -0.000001 -20.083500 6.848625 -2.227579 5.926582 21.587368 7.651089 -7.950772 4.750952 3.314928 -5.174451 -0.012493 3.480088 -10.301585 -179.978600 0.000000 -20.715600 2.208962 0.922892 -12.553706 -0.858739 0.027732 -5.146181 -8.267307 -0.023161 1.209760 13.548103 -9.654463 -8.014913 -4.073926 -0.337635 -0.022404 0.000000 0.000000 0.000000 -0.627422 15.222993 1.094328 -60.613415 9.966771 3.579642 -3.152723 -33.839366 0.003111 6.110539 1.670828 0.093991 -0.111009 -0.046753 -0.000000 0.000000 0.000000 0.000000 0.000000 0.000000 0.000000 21.118958 -2.506909 -1.379073 63.467172 12.937290 9.959389 0.764783 71.930127 -0.013340 -4.186263 6.070339 -0.236776 0.072452 -0.344671 0.000000 0.000000 0.000000 0.000000 0.000000 0.000000 0.000000 
-1.232269 17.091365 0.431995 -35.318866 79.271127 -19.713111 -10.681621 0.023818 5.023681 0.816034 -1.971229 -45.741598 0.415010 1.644016 46.525775 3.827050 19.167607 -10.521970 -0.216000 0.000000 -20.946100 6.870387 -2.253343 5.796517 21.551886 7.383276 -7.529162 4.721702 3.310083 -5.069343 -0.049048 3.485187 -10.775453 -179.969700 -0.000000 -20.690200 2.004441 1.127674 -12.585192 -0.925846 0.253655 -5.161864 -8.284084 0.203284 1.203922 13.577218 -9.277004 -7.972578 -4.063682 -0.336664 -0.014948 0.000000 0.000000 0.000000 -0.475648 15.695755 1.124335 -60.167656 10.149475 3.217553 -3.167785 -34.218062 0.003169 6.069051 1.687758 0.094506 -0.114494 -0.048629 -0.000000 0.000000 0.000000 0.000000 0.000000 0.000000 0.000000 21.057535 -1.963644 -1.352275 63.192987 13.650813 10.544757 0.759336 72.298147 -0.013103 -4.003408 6.030129 -0.225065 0.068722 -0.350950 -0.000000 0.000000 0.000000 0.000000 0.000000 0.000000 0.000000 
-1.100279 17.076589 0.441906 -35.825851 79.519862 -20.147134 -10.602599 -0.040516 5.191337 0.884645 -2.381538 -46.483409 0.382370 1.532922 44.700886 3.655244 18.199537 -9.274765 0.233100 -0.000000 -22.107400 6.893204 -2.279760 5.659228 21.524393 7.101021 -7.073452 4.691068 3.304384 -4.967486 -0.089586 3.474579 -11.266529 -179.959700 -0.000001 -20.730300 1.817092 1.319265 -12.594405 -0.987055 0.466065 -5.172068 -8.294729 0.416842 1.202459 13.596749 -8.901004 -7.936227 -4.050789 -0.335350 -0.009168 0.000000 0.000000 0.000000 -0.333967 16.185958 1.157524 -59.750032 10.285704 2.830638 -3.182445 -34.567064 0.003189 6.042902 1.704237 0.095119 -0.117942 -0.050056 -0.000000 0.000000 0.000000 0.000000 0.000000 0.000000 0.000000 20.975625 -1.430228 -1.328663 62.911996 14.355853 11.070561 0.752936 72.660633 -0.012924 -3.836039 5.985393 -0.214159 0.065004 -0.357060 0.000000 0.000000 0.000000 0.000000 0.000000 0.000000 0.000000 
-0.967342 17.060210 0.451136 -36.442130 79.791205 -20.711584 -10.530766 -0.083984 5.344175 0.906202 -2.735742 -47.162939 0.342072 1.423840 42.759356 3.439614 17.087359 -7.761070 0.709200 0.000000 -23.512100 6.917064 -2.307050 5.515360 21.499328 6.802656 -6.585104 4.659205 3.297727 -4.870294 -0.132466 3.457160 -11.768903 -179.948800 -0.000001 -20.802400 1.643834 1.499057 -12.582527 -1.043375 0.666584 -5.178668 -8.300662 0.618827 1.198528 13.604035 -8.528043 -7.899958 -4.036192 -0.333868 -0.003318 0.000000 0.000000 0.000000 -0.213637 16.659667 1.193182 -59.346304 10.431045 2.415234 -3.194154 -34.931262 0.003179 6.031798 1.731022 0.096532 -0.121244 -0.051281 -0.000000 0.000000 0.000000 0.000000 0.000000 0.000000 0.000000 20.872345 -0.907855 -1.305748 62.633658 15.045450 11.539494 0.746206 73.012847 -0.012818 -3.688913 5.940770 -0.204558 0.061437 -0.363059 0.000000 0.000000 0.000000 0.000000 0.000000 0.000000 0.000000 
-0.833287 17.042242 0.459763 -37.147319 80.080061 -21.385160 -10.467350 -0.107380 5.481695 0.873921 -3.032188 -47.774221 0.290751 1.317279 40.698558 3.187276 15.859876 -6.024986 1.174800 0.000000 -25.103300 6.941851 -2.335626 5.365469 21.473359 6.486775 -6.066556 4.626542 3.289639 -4.776865 -0.175774 3.440146 -12.275279 -179.937300 0.000000 -20.859000 1.482551 1.668996 -12.550620 -1.095543 0.857276 -5.181975 -8.302690 0.811252 1.191797 13.598545 -8.158257 -7.863245 -4.020191 -0.332259 0.002746 0.000000 0.000000 0.000000 -0.115963 17.119335 1.230396 -58.951877 10.586073 1.982220 -3.202652 -35.313270 0.003138 6.035533 1.770251 0.098844 -0.124409 -0.052362 -0.000000 0.000000 0.000000 0.000000 0.000000 0.000000 0.000000 20.748344 -0.395338 -1.284658 62.363356 15.713421 11.954291 0.739169 73.355698 -0.012810 -3.568043 5.898724 -0.196557 0.058109 -0.368985 0.000000 0.000000 0.000000 0.000000 0.000000 0.000000 0.000000 
